<svg width="20" height="20" viewBox="0 0 20 20" fill="none" xmlns="http://www.w3.org/2000/svg">
<path d="M15.0424 14.8188H6.40381C5.60078 14.8188 4.8302 14.4782 4.28674 13.886C3.74328 13.2939 3.4675 12.499 3.53239 11.6959L4.20563 3.61702C4.22997 3.36557 4.14074 3.12223 3.9704 2.93567C3.80006 2.74911 3.56483 2.65177 3.31338 2.65177H1.91011C1.57754 2.65177 1.30176 2.37598 1.30176 2.04341C1.30176 1.71085 1.57754 1.43506 1.91011 1.43506H3.3215C3.91363 1.43506 4.4733 1.68651 4.87076 2.11641C5.08977 2.35975 5.252 2.64366 5.34122 2.96H15.4723C16.2916 2.96 17.0459 3.28445 17.5975 3.86847C18.141 4.4606 18.4168 5.23119 18.3519 6.05044L17.9139 12.134C17.8246 13.6184 16.5268 14.8188 15.0424 14.8188ZM5.38178 4.16859L4.74909 11.7933C4.70854 12.2637 4.86265 12.7099 5.179 13.0587C5.49534 13.4074 5.93335 13.594 6.40381 13.594H15.0424C15.886 13.594 16.6485 12.8802 16.7134 12.0366L17.1514 5.9531C17.1838 5.47453 17.0297 5.0203 16.7134 4.68773C16.397 4.34705 15.959 4.16047 15.4804 4.16047H5.38178V4.16859Z" fill="white"/>
<path d="M13.469 18.8744C12.5767 18.8744 11.8467 18.1444 11.8467 17.2522C11.8467 16.3599 12.5767 15.6299 13.469 15.6299C14.3612 15.6299 15.0912 16.3599 15.0912 17.2522C15.0912 18.1444 14.3612 18.8744 13.469 18.8744ZM13.469 16.8466C13.2418 16.8466 13.0634 17.025 13.0634 17.2522C13.0634 17.4793 13.2418 17.6577 13.469 17.6577C13.6961 17.6577 13.8745 17.4793 13.8745 17.2522C13.8745 17.025 13.6961 16.8466 13.469 16.8466Z" fill="white"/>
<path d="M6.9797 18.8744C6.08745 18.8744 5.35742 18.1444 5.35742 17.2522C5.35742 16.3599 6.08745 15.6299 6.9797 15.6299C7.87195 15.6299 8.60197 16.3599 8.60197 17.2522C8.60197 18.1444 7.87195 18.8744 6.9797 18.8744ZM6.9797 16.8466C6.75258 16.8466 6.57413 17.025 6.57413 17.2522C6.57413 17.4793 6.75258 17.6577 6.9797 17.6577C7.20682 17.6577 7.38527 17.4793 7.38527 17.2522C7.38527 17.025 7.20682 16.8466 6.9797 16.8466Z" fill="white"/>
<path d="M17.3215 7.51871H7.58785C7.25528 7.51871 6.97949 7.24292 6.97949 6.91036C6.97949 6.57779 7.25528 6.302 7.58785 6.302H17.3215C17.6541 6.302 17.9299 6.57779 17.9299 6.91036C17.9299 7.24292 17.6541 7.51871 17.3215 7.51871Z" fill="white"/>
</svg>
