<svg width="289" height="92" viewBox="0 0 289 92" fill="none" xmlns="http://www.w3.org/2000/svg">
<rect x="1.01297" y="0.445096" width="286.974" height="90.7946" rx="1.581" fill="#F8F8FF" stroke="#225378" stroke-width="0.451715" stroke-dasharray="2.26 2.26"/>
<path d="M79.5117 55.1865C80.2451 55.1865 80.8884 55.3298 81.4417 55.6165C82.0017 55.9032 82.4317 56.3132 82.7317 56.8465C83.0384 57.3732 83.1917 57.9865 83.1917 58.6865C83.1917 59.3865 83.0384 59.9998 82.7317 60.5265C82.4317 61.0465 82.0017 61.4498 81.4417 61.7365C80.8884 62.0232 80.2451 62.1665 79.5117 62.1665H77.0717V55.1865H79.5117ZM79.4617 60.9765C80.1951 60.9765 80.7617 60.7765 81.1617 60.3765C81.5617 59.9765 81.7617 59.4132 81.7617 58.6865C81.7617 57.9598 81.5617 57.3932 81.1617 56.9865C80.7617 56.5732 80.1951 56.3665 79.4617 56.3665H78.4717V60.9765H79.4617ZM85.6497 57.4865C85.8297 57.1932 86.063 56.9632 86.3497 56.7965C86.643 56.6298 86.9764 56.5465 87.3497 56.5465V58.0165H86.9797C86.5397 58.0165 86.2064 58.1198 85.9797 58.3265C85.7597 58.5332 85.6497 58.8932 85.6497 59.4065V62.1665H84.2497V56.6265H85.6497V57.4865ZM87.9427 59.3765C87.9427 58.8165 88.0527 58.3198 88.2727 57.8865C88.4993 57.4532 88.8027 57.1198 89.1827 56.8865C89.5693 56.6532 89.9993 56.5365 90.4727 56.5365C90.886 56.5365 91.246 56.6198 91.5527 56.7865C91.866 56.9532 92.116 57.1632 92.3027 57.4165V56.6265H93.7127V62.1665H92.3027V61.3565C92.1227 61.6165 91.8727 61.8332 91.5527 62.0065C91.2393 62.1732 90.876 62.2565 90.4627 62.2565C89.996 62.2565 89.5693 62.1365 89.1827 61.8965C88.8027 61.6565 88.4993 61.3198 88.2727 60.8865C88.0527 60.4465 87.9427 59.9432 87.9427 59.3765ZM92.3027 59.3965C92.3027 59.0565 92.236 58.7665 92.1027 58.5265C91.9693 58.2798 91.7893 58.0932 91.5627 57.9665C91.336 57.8332 91.0927 57.7665 90.8327 57.7665C90.5727 57.7665 90.3327 57.8298 90.1127 57.9565C89.8927 58.0832 89.7127 58.2698 89.5727 58.5165C89.4393 58.7565 89.3727 59.0432 89.3727 59.3765C89.3727 59.7098 89.4393 60.0032 89.5727 60.2565C89.7127 60.5032 89.8927 60.6932 90.1127 60.8265C90.3393 60.9598 90.5793 61.0265 90.8327 61.0265C91.0927 61.0265 91.336 60.9632 91.5627 60.8365C91.7893 60.7032 91.9693 60.5165 92.1027 60.2765C92.236 60.0298 92.3027 59.7365 92.3027 59.3965ZM97.26 56.5365C97.6733 56.5365 98.0367 56.6198 98.35 56.7865C98.6633 56.9465 98.91 57.1565 99.09 57.4165V56.6265H100.5V62.2065C100.5 62.7198 100.397 63.1765 100.19 63.5765C99.9833 63.9832 99.6733 64.3032 99.26 64.5365C98.8467 64.7765 98.3467 64.8965 97.76 64.8965C96.9733 64.8965 96.3267 64.7132 95.82 64.3465C95.32 63.9798 95.0367 63.4798 94.97 62.8465H96.36C96.4333 63.0998 96.59 63.2998 96.83 63.4465C97.0767 63.5998 97.3733 63.6765 97.72 63.6765C98.1267 63.6765 98.4567 63.5532 98.71 63.3065C98.9633 63.0665 99.09 62.6998 99.09 62.2065V61.3465C98.91 61.6065 98.66 61.8232 98.34 61.9965C98.0267 62.1698 97.6667 62.2565 97.26 62.2565C96.7933 62.2565 96.3667 62.1365 95.98 61.8965C95.5933 61.6565 95.2867 61.3198 95.06 60.8865C94.84 60.4465 94.73 59.9432 94.73 59.3765C94.73 58.8165 94.84 58.3198 95.06 57.8865C95.2867 57.4532 95.59 57.1198 95.97 56.8865C96.3567 56.6532 96.7867 56.5365 97.26 56.5365ZM99.09 59.3965C99.09 59.0565 99.0233 58.7665 98.89 58.5265C98.7567 58.2798 98.5767 58.0932 98.35 57.9665C98.1233 57.8332 97.88 57.7665 97.62 57.7665C97.36 57.7665 97.12 57.8298 96.9 57.9565C96.68 58.0832 96.5 58.2698 96.36 58.5165C96.2267 58.7565 96.16 59.0432 96.16 59.3765C96.16 59.7098 96.2267 60.0032 96.36 60.2565C96.5 60.5032 96.68 60.6932 96.9 60.8265C97.1267 60.9598 97.3667 61.0265 97.62 61.0265C97.88 61.0265 98.1233 60.9632 98.35 60.8365C98.5767 60.7032 98.7567 60.5165 98.89 60.2765C99.0233 60.0298 99.09 59.7365 99.09 59.3965ZM109.64 62.1665L108.88 61.4165C108.233 61.9965 107.443 62.2865 106.51 62.2865C105.997 62.2865 105.543 62.1998 105.15 62.0265C104.763 61.8465 104.463 61.5965 104.25 61.2765C104.037 60.9498 103.93 60.5732 103.93 60.1465C103.93 59.6865 104.06 59.2732 104.32 58.9065C104.58 58.5398 104.963 58.2432 105.47 58.0165C105.29 57.7965 105.16 57.5865 105.08 57.3865C105 57.1798 104.96 56.9598 104.96 56.7265C104.96 56.4065 105.043 56.1198 105.21 55.8665C105.377 55.6065 105.613 55.4032 105.92 55.2565C106.233 55.1098 106.597 55.0365 107.01 55.0365C107.43 55.0365 107.79 55.1165 108.09 55.2765C108.39 55.4365 108.613 55.6498 108.76 55.9165C108.907 56.1832 108.97 56.4798 108.95 56.8065H107.59C107.597 56.5865 107.543 56.4198 107.43 56.3065C107.317 56.1865 107.163 56.1265 106.97 56.1265C106.783 56.1265 106.627 56.1832 106.5 56.2965C106.38 56.4032 106.32 56.5432 106.32 56.7165C106.32 56.8832 106.37 57.0498 106.47 57.2165C106.57 57.3765 106.733 57.5765 106.96 57.8165L108.72 59.5565C108.733 59.5432 108.743 59.5298 108.75 59.5165C108.757 59.5032 108.763 59.4898 108.77 59.4765L109.34 58.5265H110.8L110.1 59.7565C109.967 60.0165 109.823 60.2632 109.67 60.4965L111.36 62.1665H109.64ZM106.55 61.1265C107.097 61.1265 107.58 60.9332 108 60.5465L106.28 58.8465C105.633 59.1332 105.31 59.5398 105.31 60.0665C105.31 60.3665 105.423 60.6198 105.65 60.8265C105.877 61.0265 106.177 61.1265 106.55 61.1265ZM114.096 59.3765C114.096 58.8165 114.206 58.3198 114.426 57.8865C114.653 57.4532 114.96 57.1198 115.346 56.8865C115.733 56.6532 116.163 56.5365 116.636 56.5365C116.996 56.5365 117.34 56.6165 117.666 56.7765C117.993 56.9298 118.253 57.1365 118.446 57.3965V54.7665H119.866V62.1665H118.446V61.3465C118.273 61.6198 118.03 61.8398 117.716 62.0065C117.403 62.1732 117.04 62.2565 116.626 62.2565C116.16 62.2565 115.733 62.1365 115.346 61.8965C114.96 61.6565 114.653 61.3198 114.426 60.8865C114.206 60.4465 114.096 59.9432 114.096 59.3765ZM118.456 59.3965C118.456 59.0565 118.39 58.7665 118.256 58.5265C118.123 58.2798 117.943 58.0932 117.716 57.9665C117.49 57.8332 117.246 57.7665 116.986 57.7665C116.726 57.7665 116.486 57.8298 116.266 57.9565C116.046 58.0832 115.866 58.2698 115.726 58.5165C115.593 58.7565 115.526 59.0432 115.526 59.3765C115.526 59.7098 115.593 60.0032 115.726 60.2565C115.866 60.5032 116.046 60.6932 116.266 60.8265C116.493 60.9598 116.733 61.0265 116.986 61.0265C117.246 61.0265 117.49 60.9632 117.716 60.8365C117.943 60.7032 118.123 60.5165 118.256 60.2765C118.39 60.0298 118.456 59.7365 118.456 59.3965ZM122.644 57.4865C122.824 57.1932 123.057 56.9632 123.344 56.7965C123.637 56.6298 123.97 56.5465 124.344 56.5465V58.0165H123.974C123.534 58.0165 123.2 58.1198 122.974 58.3265C122.754 58.5332 122.644 58.8932 122.644 59.4065V62.1665H121.244V56.6265H122.644V57.4865ZM127.756 62.2565C127.223 62.2565 126.743 62.1398 126.316 61.9065C125.89 61.6665 125.553 61.3298 125.306 60.8965C125.066 60.4632 124.946 59.9632 124.946 59.3965C124.946 58.8298 125.07 58.3298 125.316 57.8965C125.57 57.4632 125.913 57.1298 126.346 56.8965C126.78 56.6565 127.263 56.5365 127.796 56.5365C128.33 56.5365 128.813 56.6565 129.246 56.8965C129.68 57.1298 130.02 57.4632 130.266 57.8965C130.52 58.3298 130.646 58.8298 130.646 59.3965C130.646 59.9632 130.516 60.4632 130.256 60.8965C130.003 61.3298 129.656 61.6665 129.216 61.9065C128.783 62.1398 128.296 62.2565 127.756 62.2565ZM127.756 61.0365C128.01 61.0365 128.246 60.9765 128.466 60.8565C128.693 60.7298 128.873 60.5432 129.006 60.2965C129.14 60.0498 129.206 59.7498 129.206 59.3965C129.206 58.8698 129.066 58.4665 128.786 58.1865C128.513 57.8998 128.176 57.7565 127.776 57.7565C127.376 57.7565 127.04 57.8998 126.766 58.1865C126.5 58.4665 126.366 58.8698 126.366 59.3965C126.366 59.9232 126.496 60.3298 126.756 60.6165C127.023 60.8965 127.356 61.0365 127.756 61.0365ZM133.083 57.4265C133.263 57.1732 133.51 56.9632 133.823 56.7965C134.143 56.6232 134.507 56.5365 134.913 56.5365C135.387 56.5365 135.813 56.6532 136.193 56.8865C136.58 57.1198 136.883 57.4532 137.103 57.8865C137.33 58.3132 137.443 58.8098 137.443 59.3765C137.443 59.9432 137.33 60.4465 137.103 60.8865C136.883 61.3198 136.58 61.6565 136.193 61.8965C135.813 62.1365 135.387 62.2565 134.913 62.2565C134.507 62.2565 134.147 62.1732 133.833 62.0065C133.527 61.8398 133.277 61.6298 133.083 61.3765V64.8065H131.683V56.6265H133.083V57.4265ZM136.013 59.3765C136.013 59.0432 135.943 58.7565 135.803 58.5165C135.67 58.2698 135.49 58.0832 135.263 57.9565C135.043 57.8298 134.803 57.7665 134.543 57.7665C134.29 57.7665 134.05 57.8332 133.823 57.9665C133.603 58.0932 133.423 58.2798 133.283 58.5265C133.15 58.7732 133.083 59.0632 133.083 59.3965C133.083 59.7298 133.15 60.0198 133.283 60.2665C133.423 60.5132 133.603 60.7032 133.823 60.8365C134.05 60.9632 134.29 61.0265 134.543 61.0265C134.803 61.0265 135.043 60.9598 135.263 60.8265C135.49 60.6932 135.67 60.5032 135.803 60.2565C135.943 60.0098 136.013 59.7165 136.013 59.3765ZM143.404 57.7765H142.434V62.1665H141.014V57.7765H140.384V56.6265H141.014V56.3465C141.014 55.6665 141.207 55.1665 141.594 54.8465C141.98 54.5265 142.564 54.3765 143.344 54.3965V55.5765C143.004 55.5698 142.767 55.6265 142.634 55.7465C142.5 55.8665 142.434 56.0832 142.434 56.3965V56.6265H143.404V57.7765ZM145.031 55.9665C144.784 55.9665 144.578 55.8898 144.411 55.7365C144.251 55.5765 144.171 55.3798 144.171 55.1465C144.171 54.9132 144.251 54.7198 144.411 54.5665C144.578 54.4065 144.784 54.3265 145.031 54.3265C145.278 54.3265 145.481 54.4065 145.641 54.5665C145.808 54.7198 145.891 54.9132 145.891 55.1465C145.891 55.3798 145.808 55.5765 145.641 55.7365C145.481 55.8898 145.278 55.9665 145.031 55.9665ZM145.721 56.6265V62.1665H144.321V56.6265H145.721ZM148.514 54.7665V62.1665H147.114V54.7665H148.514ZM155.057 59.2765C155.057 59.4765 155.044 59.6565 155.017 59.8165H150.967C151.001 60.2165 151.141 60.5298 151.387 60.7565C151.634 60.9832 151.937 61.0965 152.297 61.0965C152.817 61.0965 153.187 60.8732 153.407 60.4265H154.917C154.757 60.9598 154.451 61.3998 153.997 61.7465C153.544 62.0865 152.987 62.2565 152.327 62.2565C151.794 62.2565 151.314 62.1398 150.887 61.9065C150.467 61.6665 150.137 61.3298 149.897 60.8965C149.664 60.4632 149.547 59.9632 149.547 59.3965C149.547 58.8232 149.664 58.3198 149.897 57.8865C150.131 57.4532 150.457 57.1198 150.877 56.8865C151.297 56.6532 151.781 56.5365 152.327 56.5365C152.854 56.5365 153.324 56.6498 153.737 56.8765C154.157 57.1032 154.481 57.4265 154.707 57.8465C154.941 58.2598 155.057 58.7365 155.057 59.2765ZM153.607 58.8765C153.601 58.5165 153.471 58.2298 153.217 58.0165C152.964 57.7965 152.654 57.6865 152.287 57.6865C151.941 57.6865 151.647 57.7932 151.407 58.0065C151.174 58.2132 151.031 58.5032 150.977 58.8765H153.607ZM158.209 62.2565C157.756 62.2565 157.349 62.1765 156.989 62.0165C156.629 61.8498 156.342 61.6265 156.129 61.3465C155.922 61.0665 155.809 60.7565 155.789 60.4165H157.199C157.226 60.6298 157.329 60.8065 157.509 60.9465C157.696 61.0865 157.926 61.1565 158.199 61.1565C158.466 61.1565 158.672 61.1032 158.819 60.9965C158.972 60.8898 159.049 60.7532 159.049 60.5865C159.049 60.4065 158.956 60.2732 158.769 60.1865C158.589 60.0932 158.299 59.9932 157.899 59.8865C157.486 59.7865 157.146 59.6832 156.879 59.5765C156.619 59.4698 156.392 59.3065 156.199 59.0865C156.012 58.8665 155.919 58.5698 155.919 58.1965C155.919 57.8898 156.006 57.6098 156.179 57.3565C156.359 57.1032 156.612 56.9032 156.939 56.7565C157.272 56.6098 157.662 56.5365 158.109 56.5365C158.769 56.5365 159.296 56.7032 159.689 57.0365C160.082 57.3632 160.299 57.8065 160.339 58.3665H158.999C158.979 58.1465 158.886 57.9732 158.719 57.8465C158.559 57.7132 158.342 57.6465 158.069 57.6465C157.816 57.6465 157.619 57.6932 157.479 57.7865C157.346 57.8798 157.279 58.0098 157.279 58.1765C157.279 58.3632 157.372 58.5065 157.559 58.6065C157.746 58.6998 158.036 58.7965 158.429 58.8965C158.829 58.9965 159.159 59.0998 159.419 59.2065C159.679 59.3132 159.902 59.4798 160.089 59.7065C160.282 59.9265 160.382 60.2198 160.389 60.5865C160.389 60.9065 160.299 61.1932 160.119 61.4465C159.946 61.6998 159.692 61.8998 159.359 62.0465C159.032 62.1865 158.649 62.2565 158.209 62.2565ZM166.401 62.2565C165.868 62.2565 165.388 62.1398 164.961 61.9065C164.535 61.6665 164.198 61.3298 163.951 60.8965C163.711 60.4632 163.591 59.9632 163.591 59.3965C163.591 58.8298 163.715 58.3298 163.961 57.8965C164.215 57.4632 164.558 57.1298 164.991 56.8965C165.425 56.6565 165.908 56.5365 166.441 56.5365C166.975 56.5365 167.458 56.6565 167.891 56.8965C168.325 57.1298 168.665 57.4632 168.911 57.8965C169.165 58.3298 169.291 58.8298 169.291 59.3965C169.291 59.9632 169.161 60.4632 168.901 60.8965C168.648 61.3298 168.301 61.6665 167.861 61.9065C167.428 62.1398 166.941 62.2565 166.401 62.2565ZM166.401 61.0365C166.655 61.0365 166.891 60.9765 167.111 60.8565C167.338 60.7298 167.518 60.5432 167.651 60.2965C167.785 60.0498 167.851 59.7498 167.851 59.3965C167.851 58.8698 167.711 58.4665 167.431 58.1865C167.158 57.8998 166.821 57.7565 166.421 57.7565C166.021 57.7565 165.685 57.8998 165.411 58.1865C165.145 58.4665 165.011 58.8698 165.011 59.3965C165.011 59.9232 165.141 60.3298 165.401 60.6165C165.668 60.8965 166.001 61.0365 166.401 61.0365ZM171.728 57.4865C171.908 57.1932 172.141 56.9632 172.428 56.7965C172.721 56.6298 173.055 56.5465 173.428 56.5465V58.0165H173.058C172.618 58.0165 172.285 58.1198 172.058 58.3265C171.838 58.5332 171.728 58.8932 171.728 59.4065V62.1665H170.328V56.6265H171.728V57.4865Z" fill="#0F0F0F"/>
<path d="M180.734 58.5865C181.127 58.6598 181.451 58.8565 181.704 59.1765C181.957 59.4965 182.084 59.8632 182.084 60.2765C182.084 60.6498 181.991 60.9798 181.804 61.2665C181.624 61.5465 181.361 61.7665 181.014 61.9265C180.667 62.0865 180.257 62.1665 179.784 62.1665H176.774V55.1865H179.654C180.127 55.1865 180.534 55.2632 180.874 55.4165C181.221 55.5698 181.481 55.7832 181.654 56.0565C181.834 56.3298 181.924 56.6398 181.924 56.9865C181.924 57.3932 181.814 57.7332 181.594 58.0065C181.381 58.2798 181.094 58.4732 180.734 58.5865ZM178.174 58.0665H179.454C179.787 58.0665 180.044 57.9932 180.224 57.8465C180.404 57.6932 180.494 57.4765 180.494 57.1965C180.494 56.9165 180.404 56.6998 180.224 56.5465C180.044 56.3932 179.787 56.3165 179.454 56.3165H178.174V58.0665ZM179.584 61.0265C179.924 61.0265 180.187 60.9465 180.374 60.7865C180.567 60.6265 180.664 60.3998 180.664 60.1065C180.664 59.8065 180.564 59.5732 180.364 59.4065C180.164 59.2332 179.894 59.1465 179.554 59.1465H178.174V61.0265H179.584ZM184.61 57.4865C184.79 57.1932 185.023 56.9632 185.31 56.7965C185.603 56.6298 185.936 56.5465 186.31 56.5465V58.0165H185.94C185.5 58.0165 185.166 58.1198 184.94 58.3265C184.72 58.5332 184.61 58.8932 184.61 59.4065V62.1665H183.21V56.6265H184.61V57.4865ZM189.723 62.2565C189.189 62.2565 188.709 62.1398 188.283 61.9065C187.856 61.6665 187.519 61.3298 187.273 60.8965C187.033 60.4632 186.913 59.9632 186.913 59.3965C186.913 58.8298 187.036 58.3298 187.283 57.8965C187.536 57.4632 187.879 57.1298 188.313 56.8965C188.746 56.6565 189.229 56.5365 189.763 56.5365C190.296 56.5365 190.779 56.6565 191.213 56.8965C191.646 57.1298 191.986 57.4632 192.233 57.8965C192.486 58.3298 192.613 58.8298 192.613 59.3965C192.613 59.9632 192.483 60.4632 192.223 60.8965C191.969 61.3298 191.623 61.6665 191.183 61.9065C190.749 62.1398 190.263 62.2565 189.723 62.2565ZM189.723 61.0365C189.976 61.0365 190.213 60.9765 190.433 60.8565C190.659 60.7298 190.839 60.5432 190.973 60.2965C191.106 60.0498 191.173 59.7498 191.173 59.3965C191.173 58.8698 191.033 58.4665 190.753 58.1865C190.479 57.8998 190.143 57.7565 189.743 57.7565C189.343 57.7565 189.006 57.8998 188.733 58.1865C188.466 58.4665 188.333 58.8698 188.333 59.3965C188.333 59.9232 188.463 60.3298 188.723 60.6165C188.989 60.8965 189.323 61.0365 189.723 61.0365ZM201.33 56.6265L199.71 62.1665H198.2L197.19 58.2965L196.18 62.1665H194.66L193.03 56.6265H194.45L195.43 60.8465L196.49 56.6265H197.97L199.01 60.8365L199.99 56.6265H201.33ZM204.217 62.2565C203.764 62.2565 203.357 62.1765 202.997 62.0165C202.637 61.8498 202.35 61.6265 202.137 61.3465C201.93 61.0665 201.817 60.7565 201.797 60.4165H203.207C203.234 60.6298 203.337 60.8065 203.517 60.9465C203.704 61.0865 203.934 61.1565 204.207 61.1565C204.474 61.1565 204.68 61.1032 204.827 60.9965C204.98 60.8898 205.057 60.7532 205.057 60.5865C205.057 60.4065 204.964 60.2732 204.777 60.1865C204.597 60.0932 204.307 59.9932 203.907 59.8865C203.494 59.7865 203.154 59.6832 202.887 59.5765C202.627 59.4698 202.4 59.3065 202.207 59.0865C202.02 58.8665 201.927 58.5698 201.927 58.1965C201.927 57.8898 202.014 57.6098 202.187 57.3565C202.367 57.1032 202.62 56.9032 202.947 56.7565C203.28 56.6098 203.67 56.5365 204.117 56.5365C204.777 56.5365 205.304 56.7032 205.697 57.0365C206.09 57.3632 206.307 57.8065 206.347 58.3665H205.007C204.987 58.1465 204.894 57.9732 204.727 57.8465C204.567 57.7132 204.35 57.6465 204.077 57.6465C203.824 57.6465 203.627 57.6932 203.487 57.7865C203.354 57.8798 203.287 58.0098 203.287 58.1765C203.287 58.3632 203.38 58.5065 203.567 58.6065C203.754 58.6998 204.044 58.7965 204.437 58.8965C204.837 58.9965 205.167 59.0998 205.427 59.2065C205.687 59.3132 205.91 59.4798 206.097 59.7065C206.29 59.9265 206.39 60.2198 206.397 60.5865C206.397 60.9065 206.307 61.1932 206.127 61.4465C205.954 61.6998 205.7 61.8998 205.367 62.0465C205.04 62.1865 204.657 62.2565 204.217 62.2565ZM212.706 59.2765C212.706 59.4765 212.693 59.6565 212.666 59.8165H208.616C208.65 60.2165 208.79 60.5298 209.036 60.7565C209.283 60.9832 209.586 61.0965 209.946 61.0965C210.466 61.0965 210.836 60.8732 211.056 60.4265H212.566C212.406 60.9598 212.1 61.3998 211.646 61.7465C211.193 62.0865 210.636 62.2565 209.976 62.2565C209.443 62.2565 208.963 62.1398 208.536 61.9065C208.116 61.6665 207.786 61.3298 207.546 60.8965C207.313 60.4632 207.196 59.9632 207.196 59.3965C207.196 58.8232 207.313 58.3198 207.546 57.8865C207.78 57.4532 208.106 57.1198 208.526 56.8865C208.946 56.6532 209.43 56.5365 209.976 56.5365C210.503 56.5365 210.973 56.6498 211.386 56.8765C211.806 57.1032 212.13 57.4265 212.356 57.8465C212.59 58.2598 212.706 58.7365 212.706 59.2765ZM211.256 58.8765C211.25 58.5165 211.12 58.2298 210.866 58.0165C210.613 57.7965 210.303 57.6865 209.936 57.6865C209.59 57.6865 209.296 57.7932 209.056 58.0065C208.823 58.2132 208.68 58.5032 208.626 58.8765H211.256Z" fill="#225378"/>
<path d="M20.7324 75.5807C20.3644 75.5807 20.0337 75.5167 19.7404 75.3887C19.4524 75.2553 19.2257 75.074 19.0604 74.8447C18.8951 74.61 18.8097 74.3407 18.8044 74.0367H19.5804C19.6071 74.298 19.7137 74.5193 19.9004 74.7007C20.0924 74.8767 20.3697 74.9647 20.7324 74.9647C21.0791 74.9647 21.3511 74.8793 21.5484 74.7087C21.7511 74.5327 21.8524 74.3087 21.8524 74.0367C21.8524 73.8233 21.7937 73.65 21.6764 73.5167C21.5591 73.3833 21.4124 73.282 21.2364 73.2127C21.0604 73.1433 20.8231 73.0687 20.5244 72.9887C20.1564 72.8927 19.8604 72.7967 19.6364 72.7007C19.4177 72.6047 19.2284 72.4553 19.0684 72.2527C18.9137 72.0447 18.8364 71.7673 18.8364 71.4207C18.8364 71.1167 18.9137 70.8473 19.0684 70.6127C19.2231 70.378 19.4391 70.1967 19.7164 70.0687C19.9991 69.9407 20.3217 69.8767 20.6844 69.8767C21.2071 69.8767 21.6337 70.0073 21.9644 70.2687C22.3004 70.53 22.4897 70.8767 22.5324 71.3087H21.7324C21.7057 71.0953 21.5937 70.9087 21.3964 70.7487C21.1991 70.5833 20.9377 70.5007 20.6124 70.5007C20.3084 70.5007 20.0604 70.5807 19.8684 70.7407C19.6764 70.8953 19.5804 71.114 19.5804 71.3967C19.5804 71.5993 19.6364 71.7647 19.7484 71.8927C19.8657 72.0207 20.0071 72.1193 20.1724 72.1887C20.3431 72.2527 20.5804 72.3273 20.8844 72.4127C21.2524 72.514 21.5484 72.6153 21.7724 72.7167C21.9964 72.8127 22.1884 72.9647 22.3484 73.1727C22.5084 73.3753 22.5884 73.6527 22.5884 74.0047C22.5884 74.2767 22.5164 74.5327 22.3724 74.7727C22.2284 75.0127 22.0151 75.2073 21.7324 75.3567C21.4497 75.506 21.1164 75.5807 20.7324 75.5807ZM27.5877 71.1407V75.5247H26.8597V74.8767C26.721 75.1007 26.5264 75.2767 26.2757 75.4047C26.0304 75.5273 25.7584 75.5887 25.4597 75.5887C25.1184 75.5887 24.8117 75.5193 24.5397 75.3807C24.2677 75.2367 24.0517 75.0233 23.8917 74.7407C23.737 74.458 23.6597 74.114 23.6597 73.7087V71.1407H24.3797V73.6127C24.3797 74.0447 24.489 74.378 24.7077 74.6127C24.9264 74.842 25.225 74.9567 25.6037 74.9567C25.993 74.9567 26.2997 74.8367 26.5237 74.5967C26.7477 74.3567 26.8597 74.0073 26.8597 73.5487V71.1407H27.5877ZM29.5849 71.9487C29.7289 71.698 29.9422 71.49 30.2249 71.3247C30.5129 71.154 30.8462 71.0687 31.2249 71.0687C31.6142 71.0687 31.9662 71.162 32.2809 71.3487C32.6009 71.5353 32.8516 71.7993 33.0329 72.1407C33.2142 72.4767 33.3049 72.8687 33.3049 73.3167C33.3049 73.7593 33.2142 74.154 33.0329 74.5007C32.8516 74.8473 32.6009 75.1167 32.2809 75.3087C31.9662 75.5007 31.6142 75.5967 31.2249 75.5967C30.8516 75.5967 30.5209 75.514 30.2329 75.3487C29.9502 75.178 29.7342 74.9673 29.5849 74.7167V77.6047H28.8569V71.1407H29.5849V71.9487ZM32.5609 73.3167C32.5609 72.986 32.4942 72.698 32.3609 72.4527C32.2276 72.2073 32.0462 72.0207 31.8169 71.8927C31.5929 71.7647 31.3449 71.7007 31.0729 71.7007C30.8062 71.7007 30.5582 71.7673 30.3289 71.9007C30.1049 72.0287 29.9236 72.218 29.7849 72.4687C29.6516 72.714 29.5849 72.9993 29.5849 73.3247C29.5849 73.6553 29.6516 73.946 29.7849 74.1967C29.9236 74.442 30.1049 74.6313 30.3289 74.7647C30.5582 74.8927 30.8062 74.9567 31.0729 74.9567C31.3449 74.9567 31.5929 74.8927 31.8169 74.7647C32.0462 74.6313 32.2276 74.442 32.3609 74.1967C32.4942 73.946 32.5609 73.6527 32.5609 73.3167ZM35.0311 71.9487C35.1751 71.698 35.3885 71.49 35.6711 71.3247C35.9591 71.154 36.2925 71.0687 36.6711 71.0687C37.0605 71.0687 37.4125 71.162 37.7271 71.3487C38.0471 71.5353 38.2978 71.7993 38.4791 72.1407C38.6605 72.4767 38.7511 72.8687 38.7511 73.3167C38.7511 73.7593 38.6605 74.154 38.4791 74.5007C38.2978 74.8473 38.0471 75.1167 37.7271 75.3087C37.4125 75.5007 37.0605 75.5967 36.6711 75.5967C36.2978 75.5967 35.9671 75.514 35.6791 75.3487C35.3965 75.178 35.1805 74.9673 35.0311 74.7167V77.6047H34.3031V71.1407H35.0311V71.9487ZM38.0071 73.3167C38.0071 72.986 37.9405 72.698 37.8071 72.4527C37.6738 72.2073 37.4925 72.0207 37.2631 71.8927C37.0391 71.7647 36.7911 71.7007 36.5191 71.7007C36.2525 71.7007 36.0045 71.7673 35.7751 71.9007C35.5511 72.0287 35.3698 72.218 35.2311 72.4687C35.0978 72.714 35.0311 72.9993 35.0311 73.3247C35.0311 73.6553 35.0978 73.946 35.2311 74.1967C35.3698 74.442 35.5511 74.6313 35.7751 74.7647C36.0045 74.8927 36.2525 74.9567 36.5191 74.9567C36.7911 74.9567 37.0391 74.8927 37.2631 74.7647C37.4925 74.6313 37.6738 74.442 37.8071 74.1967C37.9405 73.946 38.0071 73.6527 38.0071 73.3167ZM41.6614 75.5967C41.2507 75.5967 40.8774 75.5033 40.5414 75.3167C40.2107 75.13 39.9494 74.866 39.7574 74.5247C39.5707 74.178 39.4774 73.778 39.4774 73.3247C39.4774 72.8767 39.5734 72.482 39.7654 72.1407C39.9627 71.794 40.2294 71.53 40.5654 71.3487C40.9014 71.162 41.2774 71.0687 41.6934 71.0687C42.1094 71.0687 42.4854 71.162 42.8214 71.3487C43.1574 71.53 43.4214 71.7913 43.6134 72.1327C43.8107 72.474 43.9094 72.8713 43.9094 73.3247C43.9094 73.778 43.8081 74.178 43.6054 74.5247C43.4081 74.866 43.1387 75.13 42.7974 75.3167C42.4561 75.5033 42.0774 75.5967 41.6614 75.5967ZM41.6614 74.9567C41.9227 74.9567 42.1681 74.8953 42.3974 74.7727C42.6267 74.65 42.8107 74.466 42.9494 74.2207C43.0934 73.9753 43.1654 73.6767 43.1654 73.3247C43.1654 72.9727 43.0961 72.674 42.9574 72.4287C42.8187 72.1833 42.6374 72.002 42.4134 71.8847C42.1894 71.762 41.9467 71.7007 41.6854 71.7007C41.4187 71.7007 41.1734 71.762 40.9494 71.8847C40.7307 72.002 40.5547 72.1833 40.4214 72.4287C40.2881 72.674 40.2214 72.9727 40.2214 73.3247C40.2214 73.682 40.2854 73.9833 40.4134 74.2287C40.5467 74.474 40.7227 74.658 40.9414 74.7807C41.1601 74.898 41.4001 74.9567 41.6614 74.9567ZM45.6346 71.8527C45.7626 71.602 45.9439 71.4073 46.1786 71.2687C46.4186 71.13 46.7093 71.0607 47.0506 71.0607V71.8127H46.8586C46.0426 71.8127 45.6346 72.2553 45.6346 73.1407V75.5247H44.9066V71.1407H45.6346V71.8527ZM48.819 71.7407V74.3247C48.819 74.538 48.8643 74.69 48.955 74.7807C49.0456 74.866 49.203 74.9087 49.427 74.9087H49.963V75.5247H49.307C48.9016 75.5247 48.5976 75.4313 48.395 75.2447C48.1923 75.058 48.091 74.7513 48.091 74.3247V71.7407H47.523V71.1407H48.091V70.0367H48.819V71.1407H49.963V71.7407H48.819ZM54.885 73.1647C54.885 73.3033 54.877 73.45 54.861 73.6047H51.357C51.3837 74.0367 51.5304 74.3753 51.797 74.6207C52.069 74.8607 52.397 74.9807 52.781 74.9807C53.0957 74.9807 53.357 74.9087 53.565 74.7647C53.7784 74.6153 53.9277 74.418 54.013 74.1727H54.797C54.6797 74.594 54.445 74.938 54.093 75.2047C53.741 75.466 53.3037 75.5967 52.781 75.5967C52.365 75.5967 51.9917 75.5033 51.661 75.3167C51.3357 75.13 51.0797 74.866 50.893 74.5247C50.7064 74.178 50.613 73.778 50.613 73.3247C50.613 72.8713 50.7037 72.474 50.885 72.1327C51.0664 71.7913 51.3197 71.53 51.645 71.3487C51.9757 71.162 52.3544 71.0687 52.781 71.0687C53.197 71.0687 53.565 71.1593 53.885 71.3407C54.205 71.522 54.4504 71.7727 54.621 72.0927C54.797 72.4073 54.885 72.7647 54.885 73.1647ZM54.133 73.0127C54.133 72.7353 54.0717 72.498 53.949 72.3007C53.8264 72.098 53.6584 71.946 53.445 71.8447C53.237 71.738 53.005 71.6847 52.749 71.6847C52.381 71.6847 52.0664 71.802 51.805 72.0367C51.549 72.2713 51.4024 72.5967 51.365 73.0127H54.133ZM55.614 73.3167C55.614 72.8687 55.7046 72.4767 55.886 72.1407C56.0673 71.7993 56.3153 71.5353 56.63 71.3487C56.95 71.162 57.3073 71.0687 57.702 71.0687C58.0433 71.0687 58.3606 71.1487 58.654 71.3087C58.9473 71.4633 59.1713 71.6687 59.326 71.9247V69.6047H60.062V75.5247H59.326V74.7007C59.182 74.962 58.9686 75.178 58.686 75.3487C58.4033 75.514 58.0726 75.5967 57.694 75.5967C57.3046 75.5967 56.95 75.5007 56.63 75.3087C56.3153 75.1167 56.0673 74.8473 55.886 74.5007C55.7046 74.154 55.614 73.7593 55.614 73.3167ZM59.326 73.3247C59.326 72.994 59.2593 72.706 59.126 72.4607C58.9926 72.2153 58.8113 72.0287 58.582 71.9007C58.358 71.7673 58.11 71.7007 57.838 71.7007C57.566 71.7007 57.318 71.7647 57.094 71.8927C56.87 72.0207 56.6913 72.2073 56.558 72.4527C56.4246 72.698 56.358 72.986 56.358 73.3167C56.358 73.6527 56.4246 73.946 56.558 74.1967C56.6913 74.442 56.87 74.6313 57.094 74.7647C57.318 74.8927 57.566 74.9567 57.838 74.9567C58.11 74.9567 58.358 74.8927 58.582 74.7647C58.8113 74.6313 58.9926 74.442 59.126 74.1967C59.2593 73.946 59.326 73.6553 59.326 73.3247ZM65.289 71.7407H64.369V75.5247H63.641V71.7407H63.073V71.1407H63.641V70.8287C63.641 70.338 63.7664 69.9807 64.017 69.7567C64.273 69.5273 64.681 69.4127 65.241 69.4127V70.0207C64.921 70.0207 64.6944 70.0847 64.561 70.2127C64.433 70.3353 64.369 70.5407 64.369 70.8287V71.1407H65.289V71.7407ZM68.0898 75.5967C67.6792 75.5967 67.3058 75.5033 66.9698 75.3167C66.6392 75.13 66.3778 74.866 66.1858 74.5247C65.9992 74.178 65.9058 73.778 65.9058 73.3247C65.9058 72.8767 66.0018 72.482 66.1938 72.1407C66.3912 71.794 66.6578 71.53 66.9938 71.3487C67.3298 71.162 67.7058 71.0687 68.1218 71.0687C68.5378 71.0687 68.9138 71.162 69.2498 71.3487C69.5858 71.53 69.8498 71.7913 70.0418 72.1327C70.2392 72.474 70.3378 72.8713 70.3378 73.3247C70.3378 73.778 70.2365 74.178 70.0338 74.5247C69.8365 74.866 69.5672 75.13 69.2258 75.3167C68.8845 75.5033 68.5058 75.5967 68.0898 75.5967ZM68.0898 74.9567C68.3512 74.9567 68.5965 74.8953 68.8258 74.7727C69.0552 74.65 69.2392 74.466 69.3778 74.2207C69.5218 73.9753 69.5938 73.6767 69.5938 73.3247C69.5938 72.9727 69.5245 72.674 69.3858 72.4287C69.2472 72.1833 69.0658 72.002 68.8418 71.8847C68.6178 71.762 68.3752 71.7007 68.1138 71.7007C67.8472 71.7007 67.6018 71.762 67.3778 71.8847C67.1592 72.002 66.9832 72.1833 66.8498 72.4287C66.7165 72.674 66.6498 72.9727 66.6498 73.3247C66.6498 73.682 66.7138 73.9833 66.8418 74.2287C66.9752 74.474 67.1512 74.658 67.3698 74.7807C67.5885 74.898 67.8285 74.9567 68.0898 74.9567ZM72.063 71.8527C72.191 71.602 72.3724 71.4073 72.607 71.2687C72.847 71.13 73.1377 71.0607 73.479 71.0607V71.8127H73.287C72.471 71.8127 72.063 72.2553 72.063 73.1407V75.5247H71.335V71.1407H72.063V71.8527ZM79.6314 71.0607C79.9727 71.0607 80.2767 71.1327 80.5434 71.2767C80.8101 71.4153 81.0207 71.626 81.1754 71.9087C81.3301 72.1913 81.4074 72.5353 81.4074 72.9407V75.5247H80.6874V73.0447C80.6874 72.6073 80.5781 72.274 80.3594 72.0447C80.1461 71.81 79.8554 71.6927 79.4874 71.6927C79.1087 71.6927 78.8074 71.8153 78.5834 72.0607C78.3594 72.3007 78.2474 72.65 78.2474 73.1087V75.5247H77.5274V73.0447C77.5274 72.6073 77.4181 72.274 77.1994 72.0447C76.9861 71.81 76.6954 71.6927 76.3274 71.6927C75.9487 71.6927 75.6474 71.8153 75.4234 72.0607C75.1994 72.3007 75.0874 72.65 75.0874 73.1087V75.5247H74.3594V71.1407H75.0874V71.7727C75.2314 71.5433 75.4234 71.3673 75.6634 71.2447C75.9087 71.122 76.1781 71.0607 76.4714 71.0607C76.8394 71.0607 77.1647 71.1433 77.4474 71.3087C77.7301 71.474 77.9407 71.7167 78.0794 72.0367C78.2021 71.7273 78.4047 71.4873 78.6874 71.3167C78.9701 71.146 79.2847 71.0607 79.6314 71.0607ZM82.3696 73.3167C82.3696 72.8687 82.4603 72.4767 82.6416 72.1407C82.8229 71.7993 83.0709 71.5353 83.3856 71.3487C83.7056 71.162 84.0603 71.0687 84.4496 71.0687C84.8336 71.0687 85.1669 71.1513 85.4496 71.3167C85.7323 71.482 85.9429 71.69 86.0816 71.9407V71.1407H86.8176V75.5247H86.0816V74.7087C85.9376 74.9647 85.7216 75.178 85.4336 75.3487C85.1509 75.514 84.8203 75.5967 84.4416 75.5967C84.0523 75.5967 83.7003 75.5007 83.3856 75.3087C83.0709 75.1167 82.8229 74.8473 82.6416 74.5007C82.4603 74.154 82.3696 73.7593 82.3696 73.3167ZM86.0816 73.3247C86.0816 72.994 86.0149 72.706 85.8816 72.4607C85.7483 72.2153 85.5669 72.0287 85.3376 71.9007C85.1136 71.7673 84.8656 71.7007 84.5936 71.7007C84.3216 71.7007 84.0736 71.7647 83.8496 71.8927C83.6256 72.0207 83.4469 72.2073 83.3136 72.4527C83.1803 72.698 83.1136 72.986 83.1136 73.3167C83.1136 73.6527 83.1803 73.946 83.3136 74.1967C83.4469 74.442 83.6256 74.6313 83.8496 74.7647C84.0736 74.8927 84.3216 74.9567 84.5936 74.9567C84.8656 74.9567 85.1136 74.8927 85.3376 74.7647C85.5669 74.6313 85.7483 74.442 85.8816 74.1967C86.0149 73.946 86.0816 73.6553 86.0816 73.3247ZM88.9758 71.7407V74.3247C88.9758 74.538 89.0212 74.69 89.1118 74.7807C89.2025 74.866 89.3598 74.9087 89.5838 74.9087H90.1198V75.5247H89.4638C89.0585 75.5247 88.7545 75.4313 88.5518 75.2447C88.3492 75.058 88.2478 74.7513 88.2478 74.3247V71.7407H87.6798V71.1407H88.2478V70.0367H88.9758V71.1407H90.1198V71.7407H88.9758ZM95.0419 73.1647C95.0419 73.3033 95.0339 73.45 95.0179 73.6047H91.5139C91.5406 74.0367 91.6872 74.3753 91.9539 74.6207C92.2259 74.8607 92.5539 74.9807 92.9379 74.9807C93.2526 74.9807 93.5139 74.9087 93.7219 74.7647C93.9352 74.6153 94.0846 74.418 94.1699 74.1727H94.9539C94.8366 74.594 94.6019 74.938 94.2499 75.2047C93.8979 75.466 93.4606 75.5967 92.9379 75.5967C92.5219 75.5967 92.1486 75.5033 91.8179 75.3167C91.4926 75.13 91.2366 74.866 91.0499 74.5247C90.8632 74.178 90.7699 73.778 90.7699 73.3247C90.7699 72.8713 90.8606 72.474 91.0419 72.1327C91.2232 71.7913 91.4766 71.53 91.8019 71.3487C92.1326 71.162 92.5112 71.0687 92.9379 71.0687C93.3539 71.0687 93.7219 71.1593 94.0419 71.3407C94.3619 71.522 94.6072 71.7727 94.7779 72.0927C94.9539 72.4073 95.0419 72.7647 95.0419 73.1647ZM94.2899 73.0127C94.2899 72.7353 94.2286 72.498 94.1059 72.3007C93.9832 72.098 93.8152 71.946 93.6019 71.8447C93.3939 71.738 93.1619 71.6847 92.9059 71.6847C92.5379 71.6847 92.2232 71.802 91.9619 72.0367C91.7059 72.2713 91.5592 72.5967 91.5219 73.0127H94.2899ZM97.5948 75.5967C97.2588 75.5967 96.9575 75.5407 96.6908 75.4287C96.4242 75.3113 96.2135 75.1513 96.0588 74.9487C95.9042 74.7407 95.8188 74.5033 95.8028 74.2367H96.5548C96.5762 74.4553 96.6775 74.634 96.8588 74.7727C97.0455 74.9113 97.2882 74.9807 97.5868 74.9807C97.8642 74.9807 98.0828 74.9193 98.2428 74.7967C98.4028 74.674 98.4828 74.5193 98.4828 74.3327C98.4828 74.1407 98.3975 73.9993 98.2268 73.9087C98.0562 73.8127 97.7922 73.7193 97.4348 73.6287C97.1095 73.5433 96.8428 73.458 96.6348 73.3727C96.4322 73.282 96.2562 73.1513 96.1068 72.9807C95.9628 72.8047 95.8908 72.5753 95.8908 72.2927C95.8908 72.0687 95.9575 71.8633 96.0908 71.6767C96.2242 71.49 96.4135 71.3433 96.6588 71.2367C96.9042 71.1247 97.1842 71.0687 97.4988 71.0687C97.9842 71.0687 98.3762 71.1913 98.6748 71.4367C98.9735 71.682 99.1335 72.018 99.1548 72.4447H98.4268C98.4108 72.2153 98.3175 72.0313 98.1468 71.8927C97.9815 71.754 97.7575 71.6847 97.4748 71.6847C97.2135 71.6847 97.0055 71.7407 96.8508 71.8527C96.6962 71.9647 96.6188 72.1113 96.6188 72.2927C96.6188 72.4367 96.6642 72.5567 96.7548 72.6527C96.8508 72.7433 96.9682 72.818 97.1068 72.8767C97.2508 72.93 97.4482 72.9913 97.6988 73.0607C98.0135 73.146 98.2695 73.2313 98.4668 73.3167C98.6642 73.3967 98.8322 73.5193 98.9708 73.6847C99.1148 73.85 99.1895 74.066 99.1948 74.3327C99.1948 74.5727 99.1282 74.7887 98.9948 74.9807C98.8615 75.1727 98.6722 75.3247 98.4268 75.4367C98.1868 75.5433 97.9095 75.5967 97.5948 75.5967ZM100.495 75.5727C100.356 75.5727 100.239 75.5247 100.143 75.4287C100.047 75.3327 99.9985 75.2153 99.9985 75.0767C99.9985 74.938 100.047 74.8207 100.143 74.7247C100.239 74.6287 100.356 74.5807 100.495 74.5807C100.628 74.5807 100.74 74.6287 100.831 74.7247C100.927 74.8207 100.975 74.938 100.975 75.0767C100.975 75.2153 100.927 75.3327 100.831 75.4287C100.74 75.5247 100.628 75.5727 100.495 75.5727ZM100.495 72.1487C100.356 72.1487 100.239 72.1007 100.143 72.0047C100.047 71.9087 99.9985 71.7913 99.9985 71.6527C99.9985 71.514 100.047 71.3967 100.143 71.3007C100.239 71.2047 100.356 71.1567 100.495 71.1567C100.628 71.1567 100.74 71.2047 100.831 71.3007C100.927 71.3967 100.975 71.514 100.975 71.6527C100.975 71.7913 100.927 71.9087 100.831 72.0047C100.74 72.1007 100.628 72.1487 100.495 72.1487ZM106.986 69.9487V74.0687C106.986 74.5273 106.845 74.8953 106.562 75.1727C106.28 75.4447 105.906 75.5807 105.442 75.5807C104.973 75.5807 104.597 75.442 104.314 75.1647C104.032 74.882 103.89 74.498 103.89 74.0127H104.618C104.624 74.2847 104.693 74.506 104.826 74.6767C104.965 74.8473 105.17 74.9327 105.442 74.9327C105.714 74.9327 105.917 74.8527 106.05 74.6927C106.184 74.5273 106.25 74.3193 106.25 74.0687V69.9487H106.986ZM112.189 71.5807C112.189 72.0447 112.029 72.4313 111.709 72.7407C111.394 73.0447 110.911 73.1967 110.261 73.1967H109.189V75.5247H108.461V69.9487H110.261C110.89 69.9487 111.367 70.1007 111.693 70.4047C112.023 70.7087 112.189 71.1007 112.189 71.5807ZM110.261 72.5967C110.666 72.5967 110.965 72.5087 111.157 72.3327C111.349 72.1567 111.445 71.906 111.445 71.5807C111.445 70.8927 111.05 70.5487 110.261 70.5487H109.189V72.5967H110.261ZM113.861 70.5407V72.4047H115.893V73.0047H113.861V74.9247H116.133V75.5247H113.133V69.9407H116.133V70.5407H113.861ZM121.499 71.5647C121.344 71.2393 121.12 70.9887 120.827 70.8127C120.534 70.6313 120.192 70.5407 119.803 70.5407C119.414 70.5407 119.062 70.6313 118.747 70.8127C118.438 70.9887 118.192 71.2447 118.011 71.5807C117.835 71.9113 117.747 72.2953 117.747 72.7327C117.747 73.17 117.835 73.554 118.011 73.8847C118.192 74.2153 118.438 74.4713 118.747 74.6527C119.062 74.8287 119.414 74.9167 119.803 74.9167C120.347 74.9167 120.795 74.754 121.147 74.4287C121.499 74.1033 121.704 73.6633 121.763 73.1087H119.539V72.5167H122.539V73.0767C122.496 73.5353 122.352 73.9567 122.107 74.3407C121.862 74.7193 121.539 75.0207 121.139 75.2447C120.739 75.4633 120.294 75.5727 119.803 75.5727C119.286 75.5727 118.814 75.4527 118.387 75.2127C117.96 74.9673 117.622 74.6287 117.371 74.1967C117.126 73.7647 117.003 73.2767 117.003 72.7327C117.003 72.1887 117.126 71.7007 117.371 71.2687C117.622 70.8313 117.96 70.4927 118.387 70.2527C118.814 70.0073 119.286 69.8847 119.803 69.8847C120.395 69.8847 120.918 70.0313 121.371 70.3247C121.83 70.618 122.163 71.0313 122.371 71.5647H121.499ZM124.294 74.5167L123.398 76.6687H122.91L123.494 74.5167H124.294ZM131.068 71.5807C131.068 72.0447 130.908 72.4313 130.588 72.7407C130.274 73.0447 129.791 73.1967 129.14 73.1967H128.068V75.5247H127.34V69.9487H129.14C129.77 69.9487 130.247 70.1007 130.572 70.4047C130.903 70.7087 131.068 71.1007 131.068 71.5807ZM129.14 72.5967C129.546 72.5967 129.844 72.5087 130.036 72.3327C130.228 72.1567 130.324 71.906 130.324 71.5807C130.324 70.8927 129.93 70.5487 129.14 70.5487H128.068V72.5967H129.14ZM136.397 75.5247H135.669L132.741 71.0847V75.5247H132.013V69.9407H132.741L135.669 74.3727V69.9407H136.397V75.5247ZM141.902 71.5647C141.747 71.2393 141.523 70.9887 141.23 70.8127C140.937 70.6313 140.595 70.5407 140.206 70.5407C139.817 70.5407 139.465 70.6313 139.15 70.8127C138.841 70.9887 138.595 71.2447 138.414 71.5807C138.238 71.9113 138.15 72.2953 138.15 72.7327C138.15 73.17 138.238 73.554 138.414 73.8847C138.595 74.2153 138.841 74.4713 139.15 74.6527C139.465 74.8287 139.817 74.9167 140.206 74.9167C140.75 74.9167 141.198 74.754 141.55 74.4287C141.902 74.1033 142.107 73.6633 142.166 73.1087H139.942V72.5167H142.942V73.0767C142.899 73.5353 142.755 73.9567 142.51 74.3407C142.265 74.7193 141.942 75.0207 141.542 75.2447C141.142 75.4633 140.697 75.5727 140.206 75.5727C139.689 75.5727 139.217 75.4527 138.79 75.2127C138.363 74.9673 138.025 74.6287 137.774 74.1967C137.529 73.7647 137.406 73.2767 137.406 72.7327C137.406 72.1887 137.529 71.7007 137.774 71.2687C138.025 70.8313 138.363 70.4927 138.79 70.2527C139.217 70.0073 139.689 69.8847 140.206 69.8847C140.798 69.8847 141.321 70.0313 141.774 70.3247C142.233 70.618 142.566 71.0313 142.774 71.5647H141.902ZM144.697 74.5167L143.801 76.6687H143.313L143.897 74.5167H144.697ZM151.967 71.5647C151.813 71.2393 151.589 70.9887 151.295 70.8127C151.002 70.6313 150.661 70.5407 150.271 70.5407C149.882 70.5407 149.53 70.6313 149.215 70.8127C148.906 70.9887 148.661 71.2447 148.479 71.5807C148.303 71.9113 148.215 72.2953 148.215 72.7327C148.215 73.17 148.303 73.554 148.479 73.8847C148.661 74.2153 148.906 74.4713 149.215 74.6527C149.53 74.8287 149.882 74.9167 150.271 74.9167C150.815 74.9167 151.263 74.754 151.615 74.4287C151.967 74.1033 152.173 73.6633 152.231 73.1087H150.007V72.5167H153.007V73.0767C152.965 73.5353 152.821 73.9567 152.575 74.3407C152.33 74.7193 152.007 75.0207 151.607 75.2447C151.207 75.4633 150.762 75.5727 150.271 75.5727C149.754 75.5727 149.282 75.4527 148.855 75.2127C148.429 74.9673 148.09 74.6287 147.839 74.1967C147.594 73.7647 147.471 73.2767 147.471 72.7327C147.471 72.1887 147.594 71.7007 147.839 71.2687C148.09 70.8313 148.429 70.4927 148.855 70.2527C149.282 70.0073 149.754 69.8847 150.271 69.8847C150.863 69.8847 151.386 70.0313 151.839 70.3247C152.298 70.618 152.631 71.0313 152.839 71.5647H151.967ZM154.738 69.9487V75.5247H154.01V69.9487H154.738ZM159.171 69.9487V70.5407H156.747V72.4207H158.715V73.0127H156.747V75.5247H156.019V69.9487H159.171ZM160.842 74.5167L159.946 76.6687H159.458L160.042 74.5167H160.842ZM169.545 69.9887V75.5247H168.817V71.3967L166.977 75.5247H166.465L164.617 71.3887V75.5247H163.889V69.9887H164.673L166.721 74.5647L168.769 69.9887H169.545ZM174.547 71.5807C174.547 72.0447 174.387 72.4313 174.067 72.7407C173.753 73.0447 173.27 73.1967 172.619 73.1967H171.547V75.5247H170.819V69.9487H172.619C173.249 69.9487 173.726 70.1007 174.051 70.4047C174.382 70.7087 174.547 71.1007 174.547 71.5807ZM172.619 72.5967C173.025 72.5967 173.323 72.5087 173.515 72.3327C173.707 72.1567 173.803 71.906 173.803 71.5807C173.803 70.8927 173.409 70.5487 172.619 70.5487H171.547V72.5967H172.619ZM175.196 74.2367V73.6847L178.004 69.7967H178.876V73.6047H179.676V74.2367H178.876V75.5247H178.156V74.2367H175.196ZM178.188 70.5567L176.036 73.6047H178.188V70.5567ZM181.315 74.5167L180.419 76.6687H179.931L180.515 74.5167H181.315ZM188.09 71.5807C188.09 72.0447 187.93 72.4313 187.61 72.7407C187.296 73.0447 186.813 73.1967 186.162 73.1967H185.09V75.5247H184.362V69.9487H186.162C186.792 69.9487 187.269 70.1007 187.594 70.4047C187.925 70.7087 188.09 71.1007 188.09 71.5807ZM186.162 72.5967C186.568 72.5967 186.866 72.5087 187.058 72.3327C187.25 72.1567 187.346 71.906 187.346 71.5807C187.346 70.8927 186.952 70.5487 186.162 70.5487H185.09V72.5967H186.162ZM190.771 69.9487C191.379 69.9487 191.904 70.0633 192.347 70.2927C192.795 70.5167 193.136 70.8393 193.371 71.2607C193.611 71.682 193.731 72.178 193.731 72.7487C193.731 73.3193 193.611 73.8153 193.371 74.2367C193.136 74.6527 192.795 74.9727 192.347 75.1967C191.904 75.4153 191.379 75.5247 190.771 75.5247H189.035V69.9487H190.771ZM190.771 74.9247C191.491 74.9247 192.04 74.7353 192.419 74.3567C192.798 73.9727 192.987 73.4367 192.987 72.7487C192.987 72.0553 192.795 71.514 192.411 71.1247C192.032 70.7353 191.486 70.5407 190.771 70.5407H189.763V74.9247H190.771ZM197.883 69.9487V70.5407H195.459V72.4207H197.427V73.0127H195.459V75.5247H194.731V69.9487H197.883ZM199.555 74.5167L198.659 76.6687H198.171L198.755 74.5167H199.555ZM206.329 71.5807C206.329 72.0447 206.169 72.4313 205.849 72.7407C205.535 73.0447 205.052 73.1967 204.401 73.1967H203.329V75.5247H202.601V69.9487H204.401C205.031 69.9487 205.508 70.1007 205.833 70.4047C206.164 70.7087 206.329 71.1007 206.329 71.5807ZM204.401 72.5967C204.807 72.5967 205.105 72.5087 205.297 72.3327C205.489 72.1567 205.585 71.906 205.585 71.5807C205.585 70.8927 205.191 70.5487 204.401 70.5487H203.329V72.5967H204.401ZM209.042 75.5807C208.674 75.5807 208.343 75.5167 208.05 75.3887C207.762 75.2553 207.535 75.074 207.37 74.8447C207.205 74.61 207.119 74.3407 207.114 74.0367H207.89C207.917 74.298 208.023 74.5193 208.21 74.7007C208.402 74.8767 208.679 74.9647 209.042 74.9647C209.389 74.9647 209.661 74.8793 209.858 74.7087C210.061 74.5327 210.162 74.3087 210.162 74.0367C210.162 73.8233 210.103 73.65 209.986 73.5167C209.869 73.3833 209.722 73.282 209.546 73.2127C209.37 73.1433 209.133 73.0687 208.834 72.9887C208.466 72.8927 208.17 72.7967 207.946 72.7007C207.727 72.6047 207.538 72.4553 207.378 72.2527C207.223 72.0447 207.146 71.7673 207.146 71.4207C207.146 71.1167 207.223 70.8473 207.378 70.6127C207.533 70.378 207.749 70.1967 208.026 70.0687C208.309 69.9407 208.631 69.8767 208.994 69.8767C209.517 69.8767 209.943 70.0073 210.274 70.2687C210.61 70.53 210.799 70.8767 210.842 71.3087H210.042C210.015 71.0953 209.903 70.9087 209.706 70.7487C209.509 70.5833 209.247 70.5007 208.922 70.5007C208.618 70.5007 208.37 70.5807 208.178 70.7407C207.986 70.8953 207.89 71.114 207.89 71.3967C207.89 71.5993 207.946 71.7647 208.058 71.8927C208.175 72.0207 208.317 72.1193 208.482 72.1887C208.653 72.2527 208.89 72.3273 209.194 72.4127C209.562 72.514 209.858 72.6153 210.082 72.7167C210.306 72.8127 210.498 72.9647 210.658 73.1727C210.818 73.3753 210.898 73.6527 210.898 74.0047C210.898 74.2767 210.826 74.5327 210.682 74.7727C210.538 75.0127 210.325 75.2073 210.042 75.3567C209.759 75.506 209.426 75.5807 209.042 75.5807ZM213.745 69.9487C214.353 69.9487 214.879 70.0633 215.321 70.2927C215.769 70.5167 216.111 70.8393 216.345 71.2607C216.585 71.682 216.705 72.178 216.705 72.7487C216.705 73.3193 216.585 73.8153 216.345 74.2367C216.111 74.6527 215.769 74.9727 215.321 75.1967C214.879 75.4153 214.353 75.5247 213.745 75.5247H212.009V69.9487H213.745ZM213.745 74.9247C214.465 74.9247 215.015 74.7353 215.393 74.3567C215.772 73.9727 215.961 73.4367 215.961 72.7487C215.961 72.0553 215.769 71.514 215.385 71.1247C215.007 70.7353 214.46 70.5407 213.745 70.5407H212.737V74.9247H213.745ZM218.458 74.5167L217.562 76.6687H217.074L217.658 74.5167H218.458ZM224.8 74.2847H222.368L221.92 75.5247H221.152L223.168 69.9807H224.008L226.016 75.5247H225.248L224.8 74.2847ZM224.592 73.6927L223.584 70.8767L222.576 73.6927H224.592ZM227.663 69.9487V75.5247H226.935V69.9487H227.663ZM229.696 74.5167L228.8 76.6687H228.312L228.896 74.5167H229.696ZM239.751 69.9487L238.135 75.5247H237.319L236.023 71.0367L234.679 75.5247L233.871 75.5327L232.311 69.9487H233.087L234.303 74.6767L235.647 69.9487H236.463L237.743 74.6607L238.967 69.9487H239.751ZM242.499 75.5967C242.089 75.5967 241.715 75.5033 241.379 75.3167C241.049 75.13 240.787 74.866 240.595 74.5247C240.409 74.178 240.315 73.778 240.315 73.3247C240.315 72.8767 240.411 72.482 240.603 72.1407C240.801 71.794 241.067 71.53 241.403 71.3487C241.739 71.162 242.115 71.0687 242.531 71.0687C242.947 71.0687 243.323 71.162 243.659 71.3487C243.995 71.53 244.259 71.7913 244.451 72.1327C244.649 72.474 244.747 72.8713 244.747 73.3247C244.747 73.778 244.646 74.178 244.443 74.5247C244.246 74.866 243.977 75.13 243.635 75.3167C243.294 75.5033 242.915 75.5967 242.499 75.5967ZM242.499 74.9567C242.761 74.9567 243.006 74.8953 243.235 74.7727C243.465 74.65 243.649 74.466 243.787 74.2207C243.931 73.9753 244.003 73.6767 244.003 73.3247C244.003 72.9727 243.934 72.674 243.795 72.4287C243.657 72.1833 243.475 72.002 243.251 71.8847C243.027 71.762 242.785 71.7007 242.523 71.7007C242.257 71.7007 242.011 71.762 241.787 71.8847C241.569 72.002 241.393 72.1833 241.259 72.4287C241.126 72.674 241.059 72.9727 241.059 73.3247C241.059 73.682 241.123 73.9833 241.251 74.2287C241.385 74.474 241.561 74.658 241.779 74.7807C241.998 74.898 242.238 74.9567 242.499 74.9567ZM246.472 71.8527C246.6 71.602 246.782 71.4073 247.016 71.2687C247.256 71.13 247.547 71.0607 247.888 71.0607V71.8127H247.696C246.88 71.8127 246.472 72.2553 246.472 73.1407V75.5247H245.744V71.1407H246.472V71.8527ZM248.497 73.3167C248.497 72.8687 248.587 72.4767 248.769 72.1407C248.95 71.7993 249.198 71.5353 249.513 71.3487C249.833 71.162 250.19 71.0687 250.585 71.0687C250.926 71.0687 251.243 71.1487 251.537 71.3087C251.83 71.4633 252.054 71.6687 252.209 71.9247V69.6047H252.945V75.5247H252.209V74.7007C252.065 74.962 251.851 75.178 251.569 75.3487C251.286 75.514 250.955 75.5967 250.577 75.5967C250.187 75.5967 249.833 75.5007 249.513 75.3087C249.198 75.1167 248.95 74.8473 248.769 74.5007C248.587 74.154 248.497 73.7593 248.497 73.3167ZM252.209 73.3247C252.209 72.994 252.142 72.706 252.009 72.4607C251.875 72.2153 251.694 72.0287 251.465 71.9007C251.241 71.7673 250.993 71.7007 250.721 71.7007C250.449 71.7007 250.201 71.7647 249.977 71.8927C249.753 72.0207 249.574 72.2073 249.441 72.4527C249.307 72.698 249.241 72.986 249.241 73.3167C249.241 73.6527 249.307 73.946 249.441 74.1967C249.574 74.442 249.753 74.6313 249.977 74.7647C250.201 74.8927 250.449 74.9567 250.721 74.9567C250.993 74.9567 251.241 74.8927 251.465 74.7647C251.694 74.6313 251.875 74.442 252.009 74.1967C252.142 73.946 252.209 73.6553 252.209 73.3247ZM254.967 74.5167L254.071 76.6687H253.583L254.167 74.5167H254.967ZM261.742 71.5807C261.742 72.0447 261.582 72.4313 261.262 72.7407C260.947 73.0447 260.464 73.1967 259.814 73.1967H258.742V75.5247H258.014V69.9487H259.814C260.443 69.9487 260.92 70.1007 261.246 70.4047C261.576 70.7087 261.742 71.1007 261.742 71.5807ZM259.814 72.5967C260.219 72.5967 260.518 72.5087 260.71 72.3327C260.902 72.1567 260.998 71.906 260.998 71.5807C260.998 70.8927 260.603 70.5487 259.814 70.5487H258.742V72.5967H259.814ZM266.415 71.5807C266.415 72.0447 266.255 72.4313 265.935 72.7407C265.62 73.0447 265.137 73.1967 264.487 73.1967H263.415V75.5247H262.687V69.9487H264.487C265.116 69.9487 265.593 70.1007 265.919 70.4047C266.249 70.7087 266.415 71.1007 266.415 71.5807ZM264.487 72.5967C264.892 72.5967 265.191 72.5087 265.383 72.3327C265.575 72.1567 265.671 71.906 265.671 71.5807C265.671 70.8927 265.276 70.5487 264.487 70.5487H263.415V72.5967H264.487ZM270.791 69.9487V70.5407H269.271V75.5247H268.543V70.5407H267.015V69.9487H270.791Z" fill="#676767"/>
<path d="M145.706 17.7334L145.767 17.7515L145.77 17.7485C146.055 17.8002 146.338 17.6283 146.421 17.3447C147.185 14.7663 149.591 12.9655 152.271 12.9655C152.589 12.9655 152.846 12.7067 152.846 12.3886C152.846 12.0705 152.589 11.8117 152.271 11.8117C148.977 11.8117 146.209 14.0155 145.32 17.016C145.229 17.3211 145.402 17.6422 145.706 17.7334Z" fill="#225378" stroke="#F9FFF9" stroke-width="0.195528"/>
<path d="M158.947 35.8682H156.086C155.822 35.8682 155.609 35.6536 155.609 35.389C155.609 35.1244 155.822 34.9098 156.086 34.9098H158.947C162.892 34.9098 166.101 31.6853 166.101 27.7222C166.101 23.7592 162.892 20.5346 158.947 20.5346H158.878C158.74 20.5346 158.609 20.4744 158.518 20.3693C158.427 20.2642 158.386 20.1249 158.406 19.9873C158.449 19.6889 158.47 19.3891 158.47 19.0971C158.47 15.6625 155.689 12.8678 152.27 12.8678C150.94 12.8678 149.672 13.2854 148.603 14.0757C148.367 14.2492 148.034 14.1722 147.898 13.9124C144.868 8.11649 136.956 7.33815 132.854 12.3801C131.126 14.5042 130.447 17.2673 130.991 19.9603C131.051 20.2578 130.824 20.535 130.523 20.535H130.332C126.388 20.535 123.178 23.7595 123.178 27.7226C123.178 31.6857 126.388 34.9102 130.332 34.9102H133.194C133.457 34.9102 133.671 35.1248 133.671 35.3894C133.671 35.6539 133.457 35.8686 133.194 35.8686H130.332C125.862 35.8686 122.225 32.2142 122.225 27.7226C122.225 23.357 125.66 19.7823 129.958 19.5852C129.554 16.7912 130.326 13.973 132.115 11.7736C136.507 6.37505 144.924 6.98015 148.482 12.9999C149.617 12.2849 150.916 11.9099 152.27 11.9099C156.412 11.9099 159.694 15.4517 159.407 19.5896C163.664 19.8296 167.055 23.3853 167.055 27.7222C167.055 32.2142 163.417 35.8682 158.947 35.8682L158.947 35.8682Z" fill="#225378"/>
<path d="M132.555 35.1184C132.555 41.7775 137.947 47.1956 144.575 47.1956C151.204 47.1956 156.596 41.7774 156.596 35.1184C156.596 28.4593 151.204 23.0412 144.575 23.0412C137.946 23.0412 132.555 28.4594 132.555 35.1184ZM133.704 35.1184C133.704 29.0951 138.581 24.1952 144.575 24.1952C150.569 24.1952 155.446 29.095 155.446 35.1184C155.446 41.1417 150.569 46.0416 144.575 46.0416C138.582 46.0416 133.704 41.1418 133.704 35.1184Z" fill="#225378" stroke="#F9FFF9" stroke-width="0.195528"/>
<path d="M144.347 39.9409C144.347 40.1882 144.546 40.3895 144.793 40.3895C145.041 40.3895 145.24 40.1885 145.24 39.9409V30.8198C145.24 30.5725 145.041 30.3712 144.793 30.3712C144.546 30.3712 144.347 30.5726 144.347 30.8198V39.9409Z" fill="#225378" stroke="#225378" stroke-width="0.195528"/>
<path d="M144.794 31.4553L147.271 33.9441C147.358 34.0316 147.473 34.0756 147.587 34.0756L144.794 31.4553ZM144.794 31.4553L142.317 33.944L144.794 31.4553ZM141.684 33.9441C141.859 34.1195 142.142 34.1196 142.317 33.9441L144.547 30.5725L144.478 30.5036L144.478 30.5036L141.684 33.31C141.51 33.4852 141.51 33.7689 141.684 33.9441Z" fill="#225378" stroke="#225378" stroke-width="0.195528"/>
</svg>
