<svg width="67" height="49" viewBox="0 0 67 49" fill="none" xmlns="http://www.w3.org/2000/svg">
<rect x="1.0169" y="0.560354" width="65.1889" height="47.1889" rx="9.32809" stroke="black" stroke-width="0.811138"/>
<path d="M28.3715 30.2544C27.8767 30.2544 27.4144 30.0841 27.0818 29.7678C26.66 29.3703 26.4573 28.77 26.5303 28.1211L26.8304 25.4931C26.8872 24.9983 27.1873 24.3412 27.5361 23.9843L34.1955 16.9355C35.8583 15.1754 37.5942 15.1267 39.3543 16.7895C41.1145 18.4524 41.1632 20.1882 39.5003 21.9484L32.8409 28.9972C32.5002 29.3622 31.8675 29.7029 31.3727 29.784L28.7609 30.2301C28.623 30.2382 28.5013 30.2544 28.3715 30.2544ZM36.7993 16.7814C36.1747 16.7814 35.6312 17.1708 35.0796 17.7548L28.4202 24.8117C28.258 24.982 28.0714 25.3876 28.039 25.6228L27.7388 28.2509C27.7064 28.5186 27.7713 28.7376 27.9173 28.8755C28.0633 29.0134 28.2823 29.0621 28.55 29.0215L31.1619 28.5754C31.3971 28.5348 31.7864 28.3239 31.9487 28.1536L38.6081 21.1048C39.6139 20.0341 39.9789 19.0445 38.5108 17.6656C37.8619 17.041 37.3022 16.7814 36.7993 16.7814Z" fill="black"/>
<path d="M37.9432 23.3032C37.927 23.3032 37.9027 23.3032 37.8864 23.3032C35.3557 23.0517 33.3197 21.1293 32.9304 18.6148C32.8817 18.2822 33.1088 17.974 33.4414 17.9172C33.774 17.8685 34.0822 18.0957 34.139 18.4282C34.4472 20.3912 36.0371 21.8999 38.0162 22.0946C38.3488 22.127 38.5921 22.4271 38.5597 22.7597C38.5191 23.0679 38.2515 23.3032 37.9432 23.3032Z" fill="black"/>
<path d="M40.912 32.8744H26.3115C25.9789 32.8744 25.7031 32.5986 25.7031 32.2661C25.7031 31.9335 25.9789 31.6577 26.3115 31.6577H40.912C41.2445 31.6577 41.5203 31.9335 41.5203 32.2661C41.5203 32.5986 41.2445 32.8744 40.912 32.8744Z" fill="black"/>
</svg>
