<svg width="21" height="20" viewBox="0 0 21 20" fill="none" xmlns="http://www.w3.org/2000/svg">
<path d="M5.37154 16.2544C4.87674 16.2544 4.41439 16.0841 4.08183 15.7678C3.66003 15.3703 3.45725 14.77 3.53025 14.1211L3.83037 11.4931C3.88715 10.9983 4.18727 10.3412 4.53606 9.98434L11.1955 2.93555C12.8583 1.17538 14.5942 1.12671 16.3543 2.78954C18.1145 4.45238 18.1632 6.18821 16.5003 7.94838L9.84091 14.9972C9.50023 15.3622 8.86754 15.7029 8.37275 15.784L5.76088 16.2301C5.62299 16.2382 5.50132 16.2544 5.37154 16.2544ZM13.7993 2.78143C13.1747 2.78143 12.6312 3.17078 12.0796 3.7548L5.4202 10.8117C5.25798 10.982 5.07141 11.3876 5.03897 11.6228L4.73885 14.2509C4.7064 14.5186 4.77129 14.7376 4.9173 14.8755C5.0633 15.0134 5.28231 15.0621 5.54999 15.0215L8.16185 14.5754C8.39708 14.5348 8.78643 14.3239 8.94865 14.1536L15.6081 7.1048C16.6139 6.03409 16.9789 5.04451 15.5108 3.66557C14.8619 3.04099 14.3022 2.78143 13.7993 2.78143Z" fill="black"/>
<path d="M14.9432 9.30316C14.927 9.30316 14.9027 9.30316 14.8864 9.30316C12.3557 9.05171 10.3197 7.12931 9.93039 4.61479C9.88172 4.28222 10.1088 3.97399 10.4414 3.91721C10.774 3.86854 11.0822 4.09566 11.139 4.42823C11.4472 6.39118 13.0371 7.8999 15.0162 8.09457C15.3488 8.12701 15.5921 8.42713 15.5597 8.7597C15.5191 9.06793 15.2515 9.30316 14.9432 9.30316Z" fill="black"/>
<path d="M17.912 18.8744H3.31148C2.97891 18.8744 2.70312 18.5986 2.70312 18.2661C2.70312 17.9335 2.97891 17.6577 3.31148 17.6577H17.912C18.2445 17.6577 18.5203 17.9335 18.5203 18.2661C18.5203 18.5986 18.2445 18.8744 17.912 18.8744Z" fill="black"/>
</svg>
