<svg width="24" height="24" viewBox="0 0 24 24" fill="none" xmlns="http://www.w3.org/2000/svg">
<path d="M8.99999 5.82L7.35999 4.16C7.7268 3.22836 8.36555 2.4287 9.19312 1.8651C10.0207 1.3015 10.9987 1.00006 12 1C14.76 1 17 3.24 17 6V8H18C18.5304 8 19.0391 8.21071 19.4142 8.58579C19.7893 8.96086 20 9.46957 20 10V16.8L18 14.8V10H13.2L11.2 8H15V6C15 4.34 13.66 3 12 3C10.41 3 9.10999 4.25 8.99999 5.82ZM22.11 21.46L20.84 22.73L19.46 21.35C19.1 21.75 18.58 22 18 22H5.99999C5.46955 22 4.96084 21.7893 4.58577 21.4142C4.2107 21.0391 3.99999 20.5304 3.99999 20V10C3.99999 8.89 4.88999 8 5.99999 8H6.10999L1.10999 3L2.38999 1.73L22.11 21.46ZM18 19.89L13.85 15.74C13.56 16.5 12.84 17 12 17C11.4696 17 10.9608 16.7893 10.5858 16.4142C10.2107 16.0391 9.99999 15.5304 9.99999 15C9.99999 14.15 10.5 13.44 11.26 13.15L8.10998 10H5.99999V20H18V19.89Z" fill="black"/>
</svg>
