<svg width="91" height="80" viewBox="0 0 91 80" fill="none" xmlns="http://www.w3.org/2000/svg">
<path d="M47.433 20.3418L47.5555 20.3785L47.5609 20.3724C48.1368 20.4767 48.7069 20.1299 48.8757 19.5575C50.4168 14.3546 55.2717 10.7208 60.6797 10.7208C61.3209 10.7208 61.8393 10.1986 61.8393 9.55662C61.8393 8.91464 61.3208 8.3924 60.6797 8.3924C54.0319 8.3924 48.4464 12.8394 46.653 18.8943C46.4703 19.5098 46.819 20.1578 47.433 20.3418Z" fill="#225378" stroke="#F9FFF9" stroke-width="0.394558"/>
<path d="M74.1527 56.9365H68.3786C67.8472 56.9365 67.4162 56.5035 67.4162 55.9696C67.4162 55.4357 67.8472 55.0026 68.3786 55.0026H74.1527C82.1121 55.0026 88.5882 48.4958 88.5882 40.4987C88.5882 32.5016 82.1121 25.9948 74.1527 25.9948H74.0138C73.7348 25.9948 73.4694 25.8732 73.2866 25.6612C73.1037 25.4491 73.0212 25.168 73.0611 24.8904C73.147 24.2881 73.1903 23.6831 73.1903 23.094C73.1903 16.1632 67.5776 10.5238 60.6795 10.5238C57.9959 10.5238 55.4366 11.3664 53.2781 12.9612C52.8038 13.3113 52.1302 13.1559 51.8559 12.6317C45.7428 0.936051 29.7762 -0.634557 21.4983 9.53965C18.0111 13.8259 16.641 19.4016 17.7389 24.8359C17.8599 25.4361 17.4027 25.9955 16.7958 25.9955H16.4101C8.45073 25.9955 1.97463 32.5023 1.97463 40.4994C1.97463 48.4966 8.45073 55.0034 16.4101 55.0034H22.1842C22.7156 55.0034 23.1466 55.4364 23.1466 55.9703C23.1466 56.5042 22.7156 56.9372 22.1842 56.9372H16.4101C7.38924 56.9372 0.0498047 49.563 0.0498047 40.4994C0.0498047 31.69 6.98291 24.4766 15.6547 24.0788C14.8401 18.4408 16.3978 12.7539 20.008 8.3158C28.8706 -2.57802 45.8553 -1.35697 53.0351 10.7904C55.3256 9.34763 57.9466 8.59074 60.6792 8.59074C69.0366 8.59074 75.6591 15.7378 75.0797 24.0878C83.6715 24.572 90.5126 31.7472 90.5126 40.4987C90.5126 49.563 83.1731 56.9365 74.1523 56.9365L74.1527 56.9365Z" fill="#225378"/>
<path d="M20.8955 55.4235C20.8955 68.861 31.7761 79.7943 45.1522 79.7943C58.5285 79.7943 69.409 68.8608 69.409 55.4235C69.409 41.9861 58.5285 31.0527 45.1522 31.0527C31.7759 31.0527 20.8955 41.9863 20.8955 55.4235ZM23.2152 55.4235C23.2152 43.2691 33.0572 33.3816 45.1522 33.3816C57.247 33.3816 67.0892 43.2689 67.0892 55.4235C67.0892 67.578 57.247 77.4655 45.1522 77.4655C33.0574 77.4655 23.2152 67.5782 23.2152 55.4235Z" fill="#225378" stroke="#F9FFF9" stroke-width="0.394558"/>
<path d="M44.6914 65.1549C44.6914 65.6539 45.0944 66.0601 45.5932 66.0601C46.092 66.0601 46.4951 65.6544 46.4951 65.1549V46.7493C46.4951 46.2503 46.0921 45.8441 45.5932 45.8441C45.0944 45.8441 44.6914 46.2504 44.6914 46.7493V65.1549Z" fill="#225378" stroke="#225378" stroke-width="0.394558"/>
<path d="M45.5931 48.0318L50.5915 53.054C50.7673 53.2306 50.9989 53.3194 51.2295 53.3194L45.5931 48.0318ZM45.5931 48.0318L40.5948 53.0538C40.5948 53.0539 40.5948 53.0539 40.5947 53.0539L40.5947 53.054L40.4549 52.9148L45.5931 48.0318ZM46.2311 46.1113C45.8788 45.7573 45.3069 45.7571 44.9549 46.1114L51.2296 53.3194C51.4598 53.3194 51.6915 53.2314 51.8676 53.054C52.2195 52.7004 52.2195 52.128 51.8676 51.7745L46.2311 46.1113Z" fill="#225378" stroke="#225378" stroke-width="0.394558"/>
</svg>
